<svg width="20" height="21" viewBox="0 0 20 21" fill="none" xmlns="http://www.w3.org/2000/svg">
    <path fill-rule="evenodd" clip-rule="evenodd" d="M7.88826 2.85048C9.24052 2.21651 10.762 2.21651 12.1143 2.85048L17.6903 5.46464C18.5672 5.87575 18.9596 6.76852 18.9596 7.58335C18.9596 8.39819 18.5672 9.29095 17.6903 9.70207L16.4596 10.279V14.3545C16.4596 15.3987 15.9361 16.4069 14.983 16.9347C14.3565 17.2816 13.5333 17.6993 12.667 18.0316C11.8109 18.3601 10.8629 18.625 10.0013 18.625C9.13971 18.625 8.19172 18.3601 7.33561 18.0316C6.46929 17.6993 5.64606 17.2816 5.01962 16.9347C4.06652 16.4069 3.54297 15.3987 3.54297 14.3545V10.279L2.31233 9.70203L2.29297 9.69284V12.1667C2.29297 12.5118 2.01315 12.7917 1.66797 12.7917C1.32279 12.7917 1.04297 12.5118 1.04297 12.1667V7.58333C1.04297 6.7685 1.43543 5.87571 2.31233 5.4646L7.88826 2.85048ZM4.79297 10.865V14.3545C4.79297 14.9904 5.10859 15.5551 5.62521 15.8412C6.22241 16.1719 6.99029 16.5603 7.78334 16.8646C8.58659 17.1727 9.36622 17.375 10.0013 17.375C10.6364 17.375 11.416 17.1727 12.2193 16.8646C13.0123 16.5603 13.7802 16.1719 14.3774 15.8412C14.894 15.5551 15.2096 14.9904 15.2096 14.3545V10.865L12.1143 12.3162C10.7621 12.9502 9.2406 12.9502 7.88833 12.3162L4.79297 10.865ZM2.84294 8.57024C2.50696 8.41272 2.29297 8.03699 2.29297 7.58332C2.29297 7.12964 2.50696 6.75391 2.84294 6.59639L8.41887 3.98227C9.43495 3.50591 10.5676 3.50591 11.5837 3.98227L17.1597 6.59643C17.4956 6.75394 17.7096 7.12968 17.7096 7.58335C17.7096 8.03702 17.4956 8.41276 17.1597 8.57028L11.5837 11.1844C10.5677 11.6608 9.43502 11.6608 8.41894 11.1844L2.84294 8.57024Z" fill="black" fill-opacity="0.8"/>
</svg>
