<svg width="16" height="16" viewBox="0 0 16 16" fill="none" xmlns="http://www.w3.org/2000/svg">
    <path d="M4.6665 6.44469C4.6665 5.97313 4.85383 5.52089 5.18727 5.18745C5.52071 4.85401 5.97295 4.66669 6.4445 4.66669H12.2218C12.4553 4.66669 12.6865 4.71268 12.9022 4.80203C13.118 4.89138 13.314 5.02235 13.4791 5.18745C13.6442 5.35255 13.7751 5.54856 13.8645 5.76428C13.9538 5.97999 13.9998 6.2112 13.9998 6.44469V12.222C13.9998 12.4555 13.9538 12.6867 13.8645 12.9024C13.7751 13.1181 13.6442 13.3142 13.4791 13.4793C13.314 13.6444 13.118 13.7753 12.9022 13.8647C12.6865 13.954 12.4553 14 12.2218 14H6.4445C6.21101 14 5.97981 13.954 5.76409 13.8647C5.54838 13.7753 5.35237 13.6444 5.18727 13.4793C5.02217 13.3142 4.8912 13.1181 4.80185 12.9024C4.71249 12.6867 4.6665 12.4555 4.6665 12.222V6.44469Z" stroke="black" stroke-opacity="0.4" stroke-linecap="round" stroke-linejoin="round"/>
    <path d="M2.67467 11.158C2.47023 11.0415 2.30018 10.873 2.18172 10.6697C2.06325 10.4663 2.00057 10.2353 2 10V3.33333C2 2.6 2.6 2 3.33333 2H10C10.5 2 10.772 2.25667 11 2.66667" stroke="black" stroke-opacity="0.4" stroke-linecap="round" stroke-linejoin="round"/>
</svg>
