<svg width="20" height="20" viewBox="0 0 20 20" fill="none" xmlns="http://www.w3.org/2000/svg">
<g clip-path="url(#clip0_571_514)">
<path d="M2.72916 12.7464C2.02088 11.8262 1.66675 11.3661 1.66675 9.99998C1.66675 8.63383 2.02088 8.17375 2.72916 7.25359C4.14338 5.41628 6.51518 3.33331 10.0001 3.33331C13.485 3.33331 15.8568 5.41628 17.271 7.25359C17.9793 8.17375 18.3334 8.63383 18.3334 9.99998C18.3334 11.3661 17.9793 11.8262 17.271 12.7464C15.8568 14.5837 13.485 16.6666 10.0001 16.6666C6.51518 16.6666 4.14339 14.5837 2.72916 12.7464Z" stroke="black" stroke-opacity="0.9" stroke-width="1.5"/>
<path d="M12.5 10C12.5 11.3807 11.3807 12.5 10 12.5C8.61929 12.5 7.5 11.3807 7.5 10C7.5 8.61929 8.61929 7.5 10 7.5C11.3807 7.5 12.5 8.61929 12.5 10Z" stroke="black" stroke-opacity="0.9" stroke-width="1.5"/>
</g>
<defs>
<clipPath id="clip0_571_514">
<rect width="20" height="20" fill="white"/>
</clipPath>
</defs>
</svg>
