<svg width="20" height="20" viewBox="0 0 20 20" fill="none" xmlns="http://www.w3.org/2000/svg">
<path fill-rule="evenodd" clip-rule="evenodd" d="M11.75 1.9926C13.0179 0.724717 15.0735 0.724717 16.3414 1.9926C17.6093 3.26048 17.6093 5.31612 16.3414 6.584L10.0131 12.9123C9.65642 13.269 9.4386 13.4869 9.19583 13.6762C8.90981 13.8993 8.60033 14.0906 8.27287 14.2467C7.99494 14.3791 7.70269 14.4765 7.22413 14.636L4.99692 15.3784L4.4622 15.5566C3.98358 15.7162 3.45589 15.5916 3.09915 15.2349C2.7424 14.8781 2.61783 14.3504 2.77737 13.8718L3.69801 11.1099C3.8575 10.6313 3.9549 10.3391 4.08736 10.0611C4.24342 9.73369 4.43469 9.42421 4.65778 9.13819C4.84714 8.89542 5.06498 8.6776 5.42169 8.32093L11.75 1.9926ZM4.96809 14.0704L4.26362 13.3659L4.87064 11.5449C5.04737 11.0147 5.12037 10.7991 5.21577 10.5989C5.33276 10.3534 5.47616 10.1214 5.64342 9.90696C5.77979 9.73212 5.93997 9.57042 6.33516 9.17523L11.2443 4.26608C11.4469 4.77441 11.7898 5.38793 12.3679 5.96608C12.9461 6.54423 13.5596 6.88708 14.0679 7.08972L9.15879 11.9989C8.7636 12.3941 8.6019 12.5542 8.42706 12.6906C8.21262 12.8579 7.9806 13.0013 7.7351 13.1183C7.53493 13.2137 7.31935 13.2866 6.78915 13.4634L4.96809 14.0704ZM15.064 6.09369C14.9608 6.07104 14.8317 6.03695 14.6851 5.98606C14.2817 5.84612 13.7511 5.58151 13.2518 5.0822C12.7525 4.58288 12.4879 4.05232 12.348 3.64897C12.2971 3.50227 12.263 3.37325 12.2403 3.27006L12.6339 2.87648C13.4136 2.09676 14.6778 2.09676 15.4575 2.87648C16.2373 3.65621 16.2373 4.92039 15.4575 5.70012L15.064 6.09369ZM2.709 18.3334C2.709 17.9882 2.98882 17.7084 3.334 17.7084H16.6673V18.9584H3.334C2.98882 18.9584 2.709 18.6785 2.709 18.3334Z" fill="black" fill-opacity="0.9"/>
</svg>
