<svg width="16" height="16" viewBox="0 0 16 16" fill="none" xmlns="http://www.w3.org/2000/svg">
    <path d="M4.66669 4.6665H4.00002C3.6464 4.6665 3.30726 4.80698 3.05721 5.05703C2.80716 5.30708 2.66669 5.64622 2.66669 5.99984V11.9998C2.66669 12.3535 2.80716 12.6926 3.05721 12.9426C3.30726 13.1927 3.6464 13.3332 4.00002 13.3332H10C10.3536 13.3332 10.6928 13.1927 10.9428 12.9426C11.1929 12.6926 11.3334 12.3535 11.3334 11.9998V11.3332" stroke="black" stroke-linecap="round" stroke-linejoin="round"/>
    <path d="M13.59 4.39007C13.8526 4.12751 14.0001 3.77139 14.0001 3.40007C14.0001 3.02875 13.8526 2.67264 13.59 2.41007C13.3274 2.14751 12.9713 2 12.6 2C12.2287 2 11.8726 2.14751 11.61 2.41007L6 8.00007V10.0001H8L13.59 4.39007Z" stroke="black" stroke-linecap="round" stroke-linejoin="round"/>
    <path d="M10.6667 3.3335L12.6667 5.3335" stroke="black" stroke-linecap="round" stroke-linejoin="round"/>
</svg>
