<svg width="272" height="260" viewBox="0 0 272 260" fill="none" xmlns="http://www.w3.org/2000/svg">
<path d="M129.997 260C162.918 260 194.613 247.509 218.684 225.05C242.754 202.591 257.406 171.835 259.683 138.993C261.96 106.151 251.692 73.6682 230.951 48.1023C210.21 22.5364 180.542 5.79185 147.936 1.24901C115.33 -3.29384 82.2146 4.70344 55.2754 23.6263C28.3363 42.5492 9.57991 70.9882 2.79284 103.202C-3.99421 135.416 1.69363 169.005 18.708 197.188C35.7225 225.372 62.7962 246.05 94.4634 255.049L105.428 216.462C83.5329 210.24 64.8135 195.943 53.0494 176.456C41.2852 156.97 37.3525 133.745 42.0453 111.472C46.738 89.1987 59.7066 69.5353 78.3329 56.4516C96.9593 43.3679 119.856 37.8383 142.401 40.9794C164.945 44.1204 185.458 55.698 199.799 73.3748C214.14 91.0517 221.239 113.511 219.665 136.219C218.091 158.927 207.96 180.192 191.317 195.72C174.674 211.249 152.76 219.885 129.997 219.885L129.997 260Z" fill="#D8D8D8"/>
<path d="M65.0043 242.578C84.0666 253.584 105.611 259.569 127.619 259.972C149.626 260.376 171.376 255.185 190.829 244.886C210.282 234.587 226.802 219.517 238.839 201.088C250.876 182.66 258.037 161.477 259.65 139.525C261.264 117.573 257.277 95.5708 248.063 75.5807C238.849 55.5907 224.71 38.2675 206.972 25.2351C189.233 12.2026 168.476 3.88764 146.646 1.06959C124.816 -1.74846 102.628 1.02269 82.1613 9.12328L96.9241 46.4221C111.075 40.8212 126.417 38.9052 141.51 40.8536C156.604 42.8021 170.956 48.5513 183.221 57.5622C195.486 66.5732 205.261 78.5508 211.632 92.3723C218.003 106.194 220.76 121.407 219.644 136.585C218.529 151.763 213.577 166.409 205.255 179.151C196.932 191.893 185.51 202.313 172.06 209.434C158.609 216.555 143.571 220.144 128.354 219.865C113.138 219.586 98.2415 215.448 85.0614 207.838L65.0043 242.578Z" fill="#FFE4B1"/>
<path d="M65.0043 242.578C91.4357 257.838 122.394 263.312 152.455 258.041C182.517 252.769 209.766 237.089 229.428 213.746L198.748 187.903C185.153 204.043 166.312 214.885 145.527 218.529C124.742 222.174 103.337 218.389 85.0614 207.838L65.0043 242.578Z" fill="#B1FFBD"/>
<path d="M65.0043 242.578C35.146 225.339 13.3587 196.945 4.43525 163.643L43.1825 153.261C49.3524 176.287 64.4167 195.919 85.0614 207.838L65.0043 242.578Z" fill="#FFCCCD"/>
<path d="M5.17303 166.284C-2.63118 139.438 -1.57228 110.79 8.19257 84.5931L45.7804 98.6037C39.0288 116.717 38.2967 136.525 43.6926 155.087L5.17303 166.284Z" fill="#C0CEFF"/>
<g filter="url(#filter0_bd_72_2146)">
<rect x="216" y="63" width="48" height="30" rx="15" fill="white" fill-opacity="0.12" shape-rendering="crispEdges"/>
<path d="M228.72 75.508C228.776 74.772 229.06 74.196 229.572 73.78C230.084 73.364 230.748 73.156 231.564 73.156C232.108 73.156 232.576 73.256 232.968 73.456C233.368 73.648 233.668 73.912 233.868 74.248C234.076 74.584 234.18 74.964 234.18 75.388C234.18 75.884 234.036 76.312 233.748 76.672C233.468 77.032 233.1 77.264 232.644 77.368V77.428C233.164 77.556 233.576 77.808 233.88 78.184C234.184 78.56 234.336 79.052 234.336 79.66C234.336 80.116 234.232 80.528 234.024 80.896C233.816 81.256 233.504 81.54 233.088 81.748C232.672 81.956 232.172 82.06 231.588 82.06C230.74 82.06 230.044 81.84 229.5 81.4C228.956 80.952 228.652 80.32 228.588 79.504H229.644C229.7 79.984 229.896 80.376 230.232 80.68C230.568 80.984 231.016 81.136 231.576 81.136C232.136 81.136 232.56 80.992 232.848 80.704C233.144 80.408 233.292 80.028 233.292 79.564C233.292 78.964 233.092 78.532 232.692 78.268C232.292 78.004 231.688 77.872 230.88 77.872H230.604V76.96H230.892C231.628 76.952 232.184 76.832 232.56 76.6C232.936 76.36 233.124 75.992 233.124 75.496C233.124 75.072 232.984 74.732 232.704 74.476C232.432 74.22 232.04 74.092 231.528 74.092C231.032 74.092 230.632 74.22 230.328 74.476C230.024 74.732 229.844 75.076 229.788 75.508H228.72ZM235.678 81.124C236.694 80.308 237.49 79.64 238.066 79.12C238.642 78.592 239.126 78.044 239.518 77.476C239.918 76.9 240.118 76.336 240.118 75.784C240.118 75.264 239.99 74.856 239.734 74.56C239.486 74.256 239.082 74.104 238.522 74.104C237.978 74.104 237.554 74.276 237.25 74.62C236.954 74.956 236.794 75.408 236.77 75.976H235.714C235.746 75.08 236.018 74.388 236.53 73.9C237.042 73.412 237.702 73.168 238.51 73.168C239.334 73.168 239.986 73.396 240.466 73.852C240.954 74.308 241.198 74.936 241.198 75.736C241.198 76.4 240.998 77.048 240.598 77.68C240.206 78.304 239.758 78.856 239.254 79.336C238.75 79.808 238.106 80.36 237.322 80.992H241.45V81.904H235.678V81.124ZM242.473 75.28C242.473 74.736 242.637 74.304 242.965 73.984C243.293 73.656 243.713 73.492 244.225 73.492C244.737 73.492 245.157 73.656 245.485 73.984C245.813 74.304 245.977 74.736 245.977 75.28C245.977 75.832 245.813 76.272 245.485 76.6C245.157 76.92 244.737 77.08 244.225 77.08C243.713 77.08 243.293 76.92 242.965 76.6C242.637 76.272 242.473 75.832 242.473 75.28ZM249.481 73.624L244.621 82H243.541L248.401 73.624H249.481ZM244.225 74.164C243.953 74.164 243.737 74.26 243.577 74.452C243.425 74.636 243.349 74.912 243.349 75.28C243.349 75.648 243.425 75.928 243.577 76.12C243.737 76.312 243.953 76.408 244.225 76.408C244.497 76.408 244.713 76.312 244.873 76.12C245.033 75.92 245.113 75.64 245.113 75.28C245.113 74.912 245.033 74.636 244.873 74.452C244.713 74.26 244.497 74.164 244.225 74.164ZM247.069 80.344C247.069 79.792 247.233 79.356 247.561 79.036C247.889 78.708 248.309 78.544 248.821 78.544C249.333 78.544 249.749 78.708 250.069 79.036C250.397 79.356 250.561 79.792 250.561 80.344C250.561 80.888 250.397 81.324 250.069 81.652C249.749 81.98 249.333 82.144 248.821 82.144C248.309 82.144 247.889 81.984 247.561 81.664C247.233 81.336 247.069 80.896 247.069 80.344ZM248.809 79.228C248.537 79.228 248.321 79.324 248.161 79.516C248.001 79.7 247.921 79.976 247.921 80.344C247.921 80.704 248.001 80.98 248.161 81.172C248.321 81.356 248.537 81.448 248.809 81.448C249.081 81.448 249.297 81.356 249.457 81.172C249.617 80.98 249.697 80.704 249.697 80.344C249.697 79.976 249.617 79.7 249.457 79.516C249.297 79.324 249.081 79.228 248.809 79.228Z" fill="black"/>
</g>
<g filter="url(#filter1_bd_72_2146)">
<rect x="20" y="39" width="45" height="30" rx="15" fill="white" fill-opacity="0.12" shape-rendering="crispEdges"/>
<path d="M32.456 50.32V49.324H34.712V58H33.608V50.32H32.456ZM38.1718 53.488C37.7238 53.312 37.3798 53.056 37.1398 52.72C36.8998 52.384 36.7798 51.976 36.7798 51.496C36.7798 51.064 36.8878 50.676 37.1038 50.332C37.3198 49.98 37.6398 49.704 38.0638 49.504C38.4958 49.296 39.0158 49.192 39.6238 49.192C40.2318 49.192 40.7478 49.296 41.1718 49.504C41.6038 49.704 41.9278 49.98 42.1438 50.332C42.3678 50.676 42.4798 51.064 42.4798 51.496C42.4798 51.96 42.3558 52.368 42.1078 52.72C41.8598 53.064 41.5198 53.32 41.0878 53.488C41.5838 53.64 41.9758 53.908 42.2638 54.292C42.5598 54.668 42.7078 55.124 42.7078 55.66C42.7078 56.18 42.5798 56.636 42.3238 57.028C42.0678 57.412 41.7038 57.712 41.2318 57.928C40.7678 58.136 40.2318 58.24 39.6238 58.24C39.0158 58.24 38.4798 58.136 38.0158 57.928C37.5598 57.712 37.2038 57.412 36.9478 57.028C36.6918 56.636 36.5638 56.18 36.5638 55.66C36.5638 55.124 36.7078 54.664 36.9958 54.28C37.2837 53.896 37.6758 53.632 38.1718 53.488ZM41.4238 51.628C41.4238 51.14 41.2638 50.764 40.9438 50.5C40.6238 50.236 40.1838 50.104 39.6238 50.104C39.0718 50.104 38.6358 50.236 38.3158 50.5C37.9958 50.764 37.8358 51.144 37.8358 51.64C37.8358 52.088 37.9998 52.448 38.3278 52.72C38.6638 52.992 39.0958 53.128 39.6238 53.128C40.1598 53.128 40.5918 52.992 40.9198 52.72C41.2558 52.44 41.4238 52.076 41.4238 51.628ZM39.6238 53.968C39.0318 53.968 38.5478 54.108 38.1718 54.388C37.7958 54.66 37.6077 55.072 37.6077 55.624C37.6077 56.136 37.7878 56.548 38.1478 56.86C38.5158 57.172 39.0078 57.328 39.6238 57.328C40.2398 57.328 40.7278 57.172 41.0878 56.86C41.4478 56.548 41.6278 56.136 41.6278 55.624C41.6278 55.088 41.4438 54.68 41.0758 54.4C40.7078 54.112 40.2238 53.968 39.6238 53.968ZM43.9181 51.28C43.9181 50.736 44.0821 50.304 44.4101 49.984C44.7381 49.656 45.1581 49.492 45.6701 49.492C46.1821 49.492 46.6021 49.656 46.9301 49.984C47.2581 50.304 47.4221 50.736 47.4221 51.28C47.4221 51.832 47.2581 52.272 46.9301 52.6C46.6021 52.92 46.1821 53.08 45.6701 53.08C45.1581 53.08 44.7381 52.92 44.4101 52.6C44.0821 52.272 43.9181 51.832 43.9181 51.28ZM50.9261 49.624L46.0661 58H44.9861L49.8461 49.624H50.9261ZM45.6701 50.164C45.3981 50.164 45.1821 50.26 45.0221 50.452C44.8701 50.636 44.7941 50.912 44.7941 51.28C44.7941 51.648 44.8701 51.928 45.0221 52.12C45.1821 52.312 45.3981 52.408 45.6701 52.408C45.9421 52.408 46.1581 52.312 46.3181 52.12C46.4781 51.92 46.5581 51.64 46.5581 51.28C46.5581 50.912 46.4781 50.636 46.3181 50.452C46.1581 50.26 45.9421 50.164 45.6701 50.164ZM48.5141 56.344C48.5141 55.792 48.6781 55.356 49.0061 55.036C49.3341 54.708 49.7541 54.544 50.2661 54.544C50.7781 54.544 51.1941 54.708 51.5141 55.036C51.8421 55.356 52.0061 55.792 52.0061 56.344C52.0061 56.888 51.8421 57.324 51.5141 57.652C51.1941 57.98 50.7781 58.144 50.2661 58.144C49.7541 58.144 49.3341 57.984 49.0061 57.664C48.6781 57.336 48.5141 56.896 48.5141 56.344ZM50.2541 55.228C49.9821 55.228 49.7661 55.324 49.6061 55.516C49.4461 55.7 49.3661 55.976 49.3661 56.344C49.3661 56.704 49.4461 56.98 49.6061 57.172C49.7661 57.356 49.9821 57.448 50.2541 57.448C50.5261 57.448 50.7421 57.356 50.9021 57.172C51.0621 56.98 51.1421 56.704 51.1421 56.344C51.1421 55.976 51.0621 55.7 50.9021 55.516C50.7421 55.324 50.5261 55.228 50.2541 55.228Z" fill="black"/>
</g>
<g filter="url(#filter2_bd_72_2146)">
<rect x="11" y="112" width="44" height="30" rx="15" fill="white" fill-opacity="0.12" shape-rendering="crispEdges"/>
<path d="M23.456 123.32V122.324H25.712V131H24.608V123.32H23.456ZM27.4558 130.124C28.4718 129.308 29.2678 128.64 29.8438 128.12C30.4198 127.592 30.9038 127.044 31.2958 126.476C31.6958 125.9 31.8958 125.336 31.8958 124.784C31.8958 124.264 31.7678 123.856 31.5118 123.56C31.2638 123.256 30.8598 123.104 30.2998 123.104C29.7558 123.104 29.3318 123.276 29.0278 123.62C28.7318 123.956 28.5718 124.408 28.5478 124.976H27.4918C27.5238 124.08 27.7958 123.388 28.3078 122.9C28.8198 122.412 29.4798 122.168 30.2878 122.168C31.1118 122.168 31.7638 122.396 32.2438 122.852C32.7318 123.308 32.9758 123.936 32.9758 124.736C32.9758 125.4 32.7758 126.048 32.3758 126.68C31.9838 127.304 31.5358 127.856 31.0318 128.336C30.5278 128.808 29.8838 129.36 29.0998 129.992H33.2278V130.904H27.4558V130.124ZM34.2501 124.28C34.2501 123.736 34.4141 123.304 34.7421 122.984C35.0701 122.656 35.4901 122.492 36.0021 122.492C36.5141 122.492 36.9341 122.656 37.2621 122.984C37.5901 123.304 37.7541 123.736 37.7541 124.28C37.7541 124.832 37.5901 125.272 37.2621 125.6C36.9341 125.92 36.5141 126.08 36.0021 126.08C35.4901 126.08 35.0701 125.92 34.7421 125.6C34.4141 125.272 34.2501 124.832 34.2501 124.28ZM41.2581 122.624L36.3981 131H35.3181L40.1781 122.624H41.2581ZM36.0021 123.164C35.7301 123.164 35.5141 123.26 35.3541 123.452C35.2021 123.636 35.1261 123.912 35.1261 124.28C35.1261 124.648 35.2021 124.928 35.3541 125.12C35.5141 125.312 35.7301 125.408 36.0021 125.408C36.2741 125.408 36.4901 125.312 36.6501 125.12C36.8101 124.92 36.8901 124.64 36.8901 124.28C36.8901 123.912 36.8101 123.636 36.6501 123.452C36.4901 123.26 36.2741 123.164 36.0021 123.164ZM38.8461 129.344C38.8461 128.792 39.0101 128.356 39.3381 128.036C39.6661 127.708 40.0861 127.544 40.5981 127.544C41.1101 127.544 41.5261 127.708 41.8461 128.036C42.1741 128.356 42.3381 128.792 42.3381 129.344C42.3381 129.888 42.1741 130.324 41.8461 130.652C41.5261 130.98 41.1101 131.144 40.5981 131.144C40.0861 131.144 39.6661 130.984 39.3381 130.664C39.0101 130.336 38.8461 129.896 38.8461 129.344ZM40.5861 128.228C40.3141 128.228 40.0981 128.324 39.9381 128.516C39.7781 128.7 39.6981 128.976 39.6981 129.344C39.6981 129.704 39.7781 129.98 39.9381 130.172C40.0981 130.356 40.3141 130.448 40.5861 130.448C40.8581 130.448 41.0741 130.356 41.2341 130.172C41.3941 129.98 41.4741 129.704 41.4741 129.344C41.4741 128.976 41.3941 128.7 41.2341 128.516C41.0741 128.324 40.8581 128.228 40.5861 128.228Z" fill="black"/>
</g>
<g filter="url(#filter3_bd_72_2146)">
<rect x="11" y="189" width="48" height="30" rx="15" fill="white" fill-opacity="0.12" shape-rendering="crispEdges"/>
<path d="M23.612 207.124C24.628 206.308 25.424 205.64 26 205.12C26.576 204.592 27.06 204.044 27.452 203.476C27.852 202.9 28.052 202.336 28.052 201.784C28.052 201.264 27.924 200.856 27.668 200.56C27.42 200.256 27.016 200.104 26.456 200.104C25.912 200.104 25.488 200.276 25.184 200.62C24.888 200.956 24.728 201.408 24.704 201.976H23.648C23.68 201.08 23.952 200.388 24.464 199.9C24.976 199.412 25.636 199.168 26.444 199.168C27.268 199.168 27.92 199.396 28.4 199.852C28.888 200.308 29.132 200.936 29.132 201.736C29.132 202.4 28.932 203.048 28.532 203.68C28.14 204.304 27.692 204.856 27.188 205.336C26.684 205.808 26.04 206.36 25.256 206.992H29.384V207.904H23.612V207.124ZM30.3823 206.068V205.24L34.5943 199.408H35.9023V205.12H37.1023V206.068H35.9023V208H34.8223V206.068H30.3823ZM34.8703 200.548L31.6423 205.12H34.8703V200.548ZM37.9532 201.28C37.9532 200.736 38.1172 200.304 38.4452 199.984C38.7732 199.656 39.1932 199.492 39.7052 199.492C40.2172 199.492 40.6372 199.656 40.9652 199.984C41.2932 200.304 41.4572 200.736 41.4572 201.28C41.4572 201.832 41.2932 202.272 40.9652 202.6C40.6372 202.92 40.2172 203.08 39.7052 203.08C39.1932 203.08 38.7732 202.92 38.4452 202.6C38.1172 202.272 37.9532 201.832 37.9532 201.28ZM44.9612 199.624L40.1012 208H39.0212L43.8812 199.624H44.9612ZM39.7052 200.164C39.4332 200.164 39.2172 200.26 39.0572 200.452C38.9052 200.636 38.8292 200.912 38.8292 201.28C38.8292 201.648 38.9052 201.928 39.0572 202.12C39.2172 202.312 39.4332 202.408 39.7052 202.408C39.9772 202.408 40.1932 202.312 40.3532 202.12C40.5132 201.92 40.5932 201.64 40.5932 201.28C40.5932 200.912 40.5132 200.636 40.3532 200.452C40.1932 200.26 39.9772 200.164 39.7052 200.164ZM42.5492 206.344C42.5492 205.792 42.7132 205.356 43.0412 205.036C43.3692 204.708 43.7892 204.544 44.3012 204.544C44.8132 204.544 45.2292 204.708 45.5492 205.036C45.8772 205.356 46.0412 205.792 46.0412 206.344C46.0412 206.888 45.8772 207.324 45.5492 207.652C45.2292 207.98 44.8132 208.144 44.3012 208.144C43.7892 208.144 43.3692 207.984 43.0412 207.664C42.7132 207.336 42.5492 206.896 42.5492 206.344ZM44.2892 205.228C44.0172 205.228 43.8012 205.324 43.6412 205.516C43.4812 205.7 43.4012 205.976 43.4012 206.344C43.4012 206.704 43.4812 206.98 43.6412 207.172C43.8012 207.356 44.0172 207.448 44.2892 207.448C44.5612 207.448 44.7772 207.356 44.9372 207.172C45.0972 206.98 45.1772 206.704 45.1772 206.344C45.1772 205.976 45.0972 205.7 44.9372 205.516C44.7772 205.324 44.5612 205.228 44.2892 205.228Z" fill="black"/>
</g>
<g filter="url(#filter4_bd_72_2146)">
<rect x="122" y="208" width="48" height="30" rx="15" fill="white" fill-opacity="0.12" shape-rendering="crispEdges"/>
<path d="M134.612 226.124C135.628 225.308 136.424 224.64 137 224.12C137.576 223.592 138.06 223.044 138.452 222.476C138.852 221.9 139.052 221.336 139.052 220.784C139.052 220.264 138.924 219.856 138.668 219.56C138.42 219.256 138.016 219.104 137.456 219.104C136.912 219.104 136.488 219.276 136.184 219.62C135.888 219.956 135.728 220.408 135.704 220.976H134.648C134.68 220.08 134.952 219.388 135.464 218.9C135.976 218.412 136.636 218.168 137.444 218.168C138.268 218.168 138.92 218.396 139.4 218.852C139.888 219.308 140.132 219.936 140.132 220.736C140.132 221.4 139.932 222.048 139.532 222.68C139.14 223.304 138.692 223.856 138.188 224.336C137.684 224.808 137.04 225.36 136.256 225.992H140.384V226.904H134.612V226.124ZM143.23 222.488C142.782 222.312 142.438 222.056 142.198 221.72C141.958 221.384 141.838 220.976 141.838 220.496C141.838 220.064 141.946 219.676 142.162 219.332C142.378 218.98 142.698 218.704 143.122 218.504C143.554 218.296 144.074 218.192 144.682 218.192C145.29 218.192 145.806 218.296 146.23 218.504C146.662 218.704 146.986 218.98 147.202 219.332C147.426 219.676 147.538 220.064 147.538 220.496C147.538 220.96 147.414 221.368 147.166 221.72C146.918 222.064 146.578 222.32 146.146 222.488C146.642 222.64 147.034 222.908 147.322 223.292C147.618 223.668 147.766 224.124 147.766 224.66C147.766 225.18 147.638 225.636 147.382 226.028C147.126 226.412 146.762 226.712 146.29 226.928C145.826 227.136 145.29 227.24 144.682 227.24C144.074 227.24 143.538 227.136 143.074 226.928C142.618 226.712 142.262 226.412 142.006 226.028C141.75 225.636 141.622 225.18 141.622 224.66C141.622 224.124 141.766 223.664 142.054 223.28C142.342 222.896 142.734 222.632 143.23 222.488ZM146.482 220.628C146.482 220.14 146.322 219.764 146.002 219.5C145.682 219.236 145.242 219.104 144.682 219.104C144.13 219.104 143.694 219.236 143.374 219.5C143.054 219.764 142.894 220.144 142.894 220.64C142.894 221.088 143.058 221.448 143.386 221.72C143.722 221.992 144.154 222.128 144.682 222.128C145.218 222.128 145.65 221.992 145.978 221.72C146.314 221.44 146.482 221.076 146.482 220.628ZM144.682 222.968C144.09 222.968 143.606 223.108 143.23 223.388C142.854 223.66 142.666 224.072 142.666 224.624C142.666 225.136 142.846 225.548 143.206 225.86C143.574 226.172 144.066 226.328 144.682 226.328C145.298 226.328 145.786 226.172 146.146 225.86C146.506 225.548 146.686 225.136 146.686 224.624C146.686 224.088 146.502 223.68 146.134 223.4C145.766 223.112 145.282 222.968 144.682 222.968ZM148.977 220.28C148.977 219.736 149.141 219.304 149.469 218.984C149.797 218.656 150.217 218.492 150.729 218.492C151.241 218.492 151.661 218.656 151.989 218.984C152.317 219.304 152.481 219.736 152.481 220.28C152.481 220.832 152.317 221.272 151.989 221.6C151.661 221.92 151.241 222.08 150.729 222.08C150.217 222.08 149.797 221.92 149.469 221.6C149.141 221.272 148.977 220.832 148.977 220.28ZM155.985 218.624L151.125 227H150.045L154.905 218.624H155.985ZM150.729 219.164C150.457 219.164 150.241 219.26 150.081 219.452C149.929 219.636 149.853 219.912 149.853 220.28C149.853 220.648 149.929 220.928 150.081 221.12C150.241 221.312 150.457 221.408 150.729 221.408C151.001 221.408 151.217 221.312 151.377 221.12C151.537 220.92 151.617 220.64 151.617 220.28C151.617 219.912 151.537 219.636 151.377 219.452C151.217 219.26 151.001 219.164 150.729 219.164ZM153.573 225.344C153.573 224.792 153.737 224.356 154.065 224.036C154.393 223.708 154.813 223.544 155.325 223.544C155.837 223.544 156.253 223.708 156.573 224.036C156.901 224.356 157.065 224.792 157.065 225.344C157.065 225.888 156.901 226.324 156.573 226.652C156.253 226.98 155.837 227.144 155.325 227.144C154.813 227.144 154.393 226.984 154.065 226.664C153.737 226.336 153.573 225.896 153.573 225.344ZM155.313 224.228C155.041 224.228 154.825 224.324 154.665 224.516C154.505 224.7 154.425 224.976 154.425 225.344C154.425 225.704 154.505 225.98 154.665 226.172C154.825 226.356 155.041 226.448 155.313 226.448C155.585 226.448 155.801 226.356 155.961 226.172C156.121 225.98 156.201 225.704 156.201 225.344C156.201 224.976 156.121 224.7 155.961 224.516C155.801 224.324 155.585 224.228 155.313 224.228Z" fill="black"/>
</g>
<defs>
<filter id="filter0_bd_72_2146" x="208" y="55" width="64" height="46" filterUnits="userSpaceOnUse" color-interpolation-filters="sRGB">
<feFlood flood-opacity="0" result="BackgroundImageFix"/>
<feGaussianBlur in="BackgroundImageFix" stdDeviation="2"/>
<feComposite in2="SourceAlpha" operator="in" result="effect1_backgroundBlur_72_2146"/>
<feColorMatrix in="SourceAlpha" type="matrix" values="0 0 0 0 0 0 0 0 0 0 0 0 0 0 0 0 0 0 127 0" result="hardAlpha"/>
<feOffset/>
<feGaussianBlur stdDeviation="4"/>
<feComposite in2="hardAlpha" operator="out"/>
<feColorMatrix type="matrix" values="0 0 0 0 0.766667 0 0 0 0 0.766667 0 0 0 0 0.766667 0 0 0 0.12 0"/>
<feBlend mode="normal" in2="effect1_backgroundBlur_72_2146" result="effect2_dropShadow_72_2146"/>
<feBlend mode="normal" in="SourceGraphic" in2="effect2_dropShadow_72_2146" result="shape"/>
</filter>
<filter id="filter1_bd_72_2146" x="12" y="31" width="61" height="46" filterUnits="userSpaceOnUse" color-interpolation-filters="sRGB">
<feFlood flood-opacity="0" result="BackgroundImageFix"/>
<feGaussianBlur in="BackgroundImageFix" stdDeviation="2"/>
<feComposite in2="SourceAlpha" operator="in" result="effect1_backgroundBlur_72_2146"/>
<feColorMatrix in="SourceAlpha" type="matrix" values="0 0 0 0 0 0 0 0 0 0 0 0 0 0 0 0 0 0 127 0" result="hardAlpha"/>
<feOffset/>
<feGaussianBlur stdDeviation="4"/>
<feComposite in2="hardAlpha" operator="out"/>
<feColorMatrix type="matrix" values="0 0 0 0 0.766667 0 0 0 0 0.766667 0 0 0 0 0.766667 0 0 0 0.12 0"/>
<feBlend mode="normal" in2="effect1_backgroundBlur_72_2146" result="effect2_dropShadow_72_2146"/>
<feBlend mode="normal" in="SourceGraphic" in2="effect2_dropShadow_72_2146" result="shape"/>
</filter>
<filter id="filter2_bd_72_2146" x="3" y="104" width="60" height="46" filterUnits="userSpaceOnUse" color-interpolation-filters="sRGB">
<feFlood flood-opacity="0" result="BackgroundImageFix"/>
<feGaussianBlur in="BackgroundImageFix" stdDeviation="2"/>
<feComposite in2="SourceAlpha" operator="in" result="effect1_backgroundBlur_72_2146"/>
<feColorMatrix in="SourceAlpha" type="matrix" values="0 0 0 0 0 0 0 0 0 0 0 0 0 0 0 0 0 0 127 0" result="hardAlpha"/>
<feOffset/>
<feGaussianBlur stdDeviation="4"/>
<feComposite in2="hardAlpha" operator="out"/>
<feColorMatrix type="matrix" values="0 0 0 0 0.766667 0 0 0 0 0.766667 0 0 0 0 0.766667 0 0 0 0.12 0"/>
<feBlend mode="normal" in2="effect1_backgroundBlur_72_2146" result="effect2_dropShadow_72_2146"/>
<feBlend mode="normal" in="SourceGraphic" in2="effect2_dropShadow_72_2146" result="shape"/>
</filter>
<filter id="filter3_bd_72_2146" x="3" y="181" width="64" height="46" filterUnits="userSpaceOnUse" color-interpolation-filters="sRGB">
<feFlood flood-opacity="0" result="BackgroundImageFix"/>
<feGaussianBlur in="BackgroundImageFix" stdDeviation="2"/>
<feComposite in2="SourceAlpha" operator="in" result="effect1_backgroundBlur_72_2146"/>
<feColorMatrix in="SourceAlpha" type="matrix" values="0 0 0 0 0 0 0 0 0 0 0 0 0 0 0 0 0 0 127 0" result="hardAlpha"/>
<feOffset/>
<feGaussianBlur stdDeviation="4"/>
<feComposite in2="hardAlpha" operator="out"/>
<feColorMatrix type="matrix" values="0 0 0 0 0.766667 0 0 0 0 0.766667 0 0 0 0 0.766667 0 0 0 0.12 0"/>
<feBlend mode="normal" in2="effect1_backgroundBlur_72_2146" result="effect2_dropShadow_72_2146"/>
<feBlend mode="normal" in="SourceGraphic" in2="effect2_dropShadow_72_2146" result="shape"/>
</filter>
<filter id="filter4_bd_72_2146" x="114" y="200" width="64" height="46" filterUnits="userSpaceOnUse" color-interpolation-filters="sRGB">
<feFlood flood-opacity="0" result="BackgroundImageFix"/>
<feGaussianBlur in="BackgroundImageFix" stdDeviation="2"/>
<feComposite in2="SourceAlpha" operator="in" result="effect1_backgroundBlur_72_2146"/>
<feColorMatrix in="SourceAlpha" type="matrix" values="0 0 0 0 0 0 0 0 0 0 0 0 0 0 0 0 0 0 127 0" result="hardAlpha"/>
<feOffset/>
<feGaussianBlur stdDeviation="4"/>
<feComposite in2="hardAlpha" operator="out"/>
<feColorMatrix type="matrix" values="0 0 0 0 0.766667 0 0 0 0 0.766667 0 0 0 0 0.766667 0 0 0 0.12 0"/>
<feBlend mode="normal" in2="effect1_backgroundBlur_72_2146" result="effect2_dropShadow_72_2146"/>
<feBlend mode="normal" in="SourceGraphic" in2="effect2_dropShadow_72_2146" result="shape"/>
</filter>
</defs>
</svg>
