<svg width="22" height="23" viewBox="0 0 22 23" fill="none" xmlns="http://www.w3.org/2000/svg">
    <path
        d="M14.6667 4.16827C16.6604 4.17937 17.7402 4.26779 18.4445 4.97214C19.25 5.77759 19.25 7.07396 19.25 9.66668V15.1667C19.25 17.7594 19.25 19.0558 18.4445 19.8612C17.6391 20.6667 16.3427 20.6667 13.75 20.6667H8.25C5.65728 20.6667 4.36091 20.6667 3.55546 19.8612C2.75 19.0558 2.75 17.7594 2.75 15.1667V9.66668C2.75 7.07396 2.75 5.77759 3.55546 4.97214C4.25981 4.26779 5.33956 4.17937 7.33333 4.16827"
        stroke="black" stroke-opacity="0.8" stroke-width="1.5"/>
    <path d="M9.625 13.3333L15.5833 13.3333" stroke="black" stroke-opacity="0.8"
          stroke-width="1.5" stroke-linecap="round"/>
    <path d="M6.41699 13.3333H6.87533" stroke="black" stroke-opacity="0.8" stroke-width="1.5"
          stroke-linecap="round"/>
    <path d="M6.41699 10.125H6.87533" stroke="black" stroke-opacity="0.8" stroke-width="1.5"
          stroke-linecap="round"/>
    <path d="M6.41699 16.5417H6.87533" stroke="black" stroke-opacity="0.8" stroke-width="1.5"
          stroke-linecap="round"/>
    <path d="M9.625 10.125H15.5833" stroke="black" stroke-opacity="0.8" stroke-width="1.5"
          stroke-linecap="round"/>
    <path d="M9.625 16.5417H15.5833" stroke="black" stroke-opacity="0.8" stroke-width="1.5"
          stroke-linecap="round"/>
    <path
        d="M7.33301 3.70831C7.33301 2.94892 7.94862 2.33331 8.70801 2.33331H13.2913C14.0507 2.33331 14.6663 2.94892 14.6663 3.70831V4.62498C14.6663 5.38437 14.0507 5.99998 13.2913 5.99998H8.70801C7.94862 5.99998 7.33301 5.38437 7.33301 4.62498V3.70831Z"
        stroke="black" stroke-opacity="0.8" stroke-width="1.5"/>
</svg>
