<svg width="20" height="21" viewBox="0 0 20 21" fill="none" xmlns="http://www.w3.org/2000/svg">
<path d="M8.23139 4.04157C8.48909 3.31248 9.18445 2.79163 9.99986 2.79163C10.8153 2.79163 11.5106 3.31248 11.7683 4.04157C11.8834 4.36702 12.2404 4.5376 12.5659 4.42257C12.8913 4.30754 13.0619 3.95046 12.9469 3.62501C12.5182 2.41211 11.3615 1.54163 9.99986 1.54163C8.63824 1.54163 7.48154 2.41211 7.05284 3.62501C6.93781 3.95046 7.10839 4.30754 7.43384 4.42257C7.75929 4.5376 8.11636 4.36702 8.23139 4.04157Z" fill="#FF1346"/>
<path d="M2.2915 5.49996C2.2915 5.15478 2.57133 4.87496 2.9165 4.87496H17.0832C17.4284 4.87496 17.7082 5.15478 17.7082 5.49996C17.7082 5.84514 17.4284 6.12496 17.0832 6.12496H2.9165C2.57133 6.12496 2.2915 5.84514 2.2915 5.49996Z" fill="#FF1346"/>
<path d="M4.26388 6.95968C4.6083 6.93671 4.90611 7.1973 4.92907 7.54172L5.31236 13.291C5.38724 14.4142 5.4406 15.1957 5.55774 15.7837C5.67136 16.3541 5.82997 16.656 6.05782 16.8692C6.28566 17.0823 6.59746 17.2205 7.17413 17.2959C7.76863 17.3737 8.55197 17.375 9.67767 17.375H10.3221C11.4478 17.375 12.2312 17.3737 12.8257 17.2959C13.4023 17.2205 13.7141 17.0823 13.942 16.8692C14.1698 16.656 14.3284 16.3541 14.4421 15.7837C14.5592 15.1957 14.6126 14.4142 14.6874 13.291L15.0707 7.54172C15.0937 7.1973 15.3915 6.93671 15.7359 6.95968C16.0803 6.98264 16.3409 7.28045 16.318 7.62487L15.9318 13.418C15.8605 14.4869 15.803 15.3504 15.668 16.0279C15.5276 16.7324 15.289 17.3208 14.796 17.782C14.303 18.2432 13.7 18.4422 12.9878 18.5354C12.3028 18.625 11.4374 18.625 10.3661 18.625H9.63372C8.5624 18.625 7.69703 18.625 7.012 18.5354C6.29979 18.4422 5.69683 18.2432 5.20384 17.782C4.71084 17.3208 4.47216 16.7324 4.33182 16.0279C4.19685 15.3504 4.1393 14.4869 4.06805 13.418L3.68184 7.62487C3.65888 7.28045 3.91947 6.98264 4.26388 6.95968Z" fill="#FF1346"/>
</svg>
