<svg width="28" height="28" viewBox="0 0 28 28" fill="none" xmlns="http://www.w3.org/2000/svg">
<path d="M6.67209 12.826C7.00432 12.826 7.27365 12.5567 7.27365 12.2244V11.5383C7.27365 11.206 7.00432 10.9367 6.67209 10.9367C6.33986 10.9367 6.07053 11.206 6.07053 11.5383V12.2244C6.07053 12.5567 6.33986 12.826 6.67209 12.826Z" fill="black"/>
<path d="M10.7452 12.826C11.0774 12.826 11.3467 12.5567 11.3467 12.2244V11.5383C11.3467 11.206 11.0774 10.9367 10.7452 10.9367C10.413 10.9367 10.1436 11.206 10.1436 11.5383V12.2244C10.1436 12.5567 10.413 12.826 10.7452 12.826Z" fill="black"/>
<path d="M8.37424 15.0941H9.04301C9.37524 15.0941 9.64457 14.8248 9.64457 14.4926C9.64457 14.1603 9.37524 13.891 9.04301 13.891H8.37424C8.04201 13.891 7.77267 14.1603 7.77267 14.4926C7.77267 14.8248 8.04201 15.0941 8.37424 15.0941Z" fill="black"/>
<path d="M16.0761 25.2905H1.2303V23.3981C1.2303 21.5656 2.16114 19.8495 3.65553 18.8343V20.7178C3.65553 20.9208 3.75796 21.1101 3.92787 21.2213C3.92787 21.2213 8.37758 24.131 8.37791 24.1312L8.38097 24.133C8.58501 24.2514 8.8375 24.2507 9.04045 24.1306L9.04055 24.1305L13.4894 21.2214C13.6594 21.1102 13.7618 20.9209 13.7618 20.7178V18.8476C14.0678 19.0561 14.3455 19.294 14.6079 19.5709C14.7262 19.6958 15.0806 18.3467 14.864 18.1708C14.5261 17.8964 14.1606 17.6576 13.7618 17.4503V17.2538C13.7618 16.951 13.5367 16.6955 13.2364 16.6571L12.3127 16.5391C13.4658 15.532 14.1951 14.053 14.1951 12.4072V10.053C14.1951 9.32447 13.6018 8.73182 12.8724 8.73182C11.6619 8.73182 10.5372 8.13289 9.86366 7.12964L9.19373 6.13165C9.08162 5.96464 8.89191 5.865 8.69236 5.86538C8.49122 5.86603 8.30375 5.96715 8.19268 6.13488L7.54709 7.11012C6.87493 8.12556 5.74536 8.73182 4.52539 8.73182H4.51615C3.78684 8.73182 3.19342 9.32447 3.19342 10.053V12.4072C3.19342 14.0547 3.92432 15.5351 5.07948 16.5423L4.1808 16.6571C3.88046 16.6954 3.65542 16.951 3.65542 17.2538V17.4361C2.8128 17.8725 2.07408 18.4811 1.48498 19.2215C1.29773 18.5621 1.20312 17.8791 1.20312 17.1818C1.20312 16.1279 1.41838 15.1094 1.84291 14.1546C1.87786 14.076 1.89695 13.9913 1.89695 13.9053V9.49083C1.89695 5.75157 4.94621 2.70942 8.69433 2.70942C12.4424 2.70942 15.4917 5.75152 15.4917 9.49083V14.0958C15.4917 14.428 16.6948 13.8982 16.6948 13.566V9.49089C16.6948 5.08822 13.1058 1.50635 8.69427 1.50635C4.2828 1.50635 0.69382 5.08822 0.69382 9.49089V13.7798C0.233406 14.8563 0 16.0002 0 17.1818C0 18.3413 0.225586 19.4672 0.670414 20.5282C0.247734 21.4206 0.027125 22.3984 0.027125 23.3981V25.8921C0.027125 26.2243 0.296461 26.4937 0.628688 26.4937H17.371C17.6804 26.4937 17.0219 26.2601 16.9299 25.9597C16.8189 25.5973 16.4551 25.2905 16.0761 25.2905ZM12.5587 20.3924L9.88799 22.1388L11.5136 17.6499L12.5587 17.7834V20.3924ZM4.3966 12.4072V10.053C4.3966 9.98789 4.45025 9.93495 4.5162 9.93495H4.52544C6.15016 9.93495 7.65483 9.12716 8.55039 7.77419L8.69783 7.55145L8.86484 7.80017C9.76221 9.13689 11.2604 9.93495 12.8725 9.93495C12.9384 9.93495 12.9921 9.98789 12.9921 10.053V12.4072C12.9921 14.7711 11.0641 16.6943 8.69438 16.6943C6.32455 16.6943 4.3966 14.7711 4.3966 12.4072ZM8.69433 17.8974C9.22436 17.8974 9.73705 17.8222 10.2224 17.6819L8.70866 21.862L7.19824 17.6911C7.67408 17.8254 8.17594 17.8974 8.69433 17.8974ZM4.85866 17.7834L5.90373 17.65L7.52926 22.1388L4.85866 20.3924V17.7834Z" fill="black"/>
<path d="M21.4988 16.3223H17.9658C17.6335 16.3223 17.3642 16.5916 17.3642 16.9238C17.3642 17.2561 17.6335 17.5254 17.9658 17.5254H21.4988C21.831 17.5254 22.1004 17.2561 22.1004 16.9238C22.1004 16.5916 21.831 16.3223 21.4988 16.3223Z" fill="#33CCCC"/>
<path d="M21.4988 19.2413H17.9658C17.6335 19.2413 17.3642 19.5107 17.3642 19.8429C17.3642 20.1751 17.6335 20.4445 17.9658 20.4445H21.4988C21.831 20.4445 22.1004 20.1751 22.1004 19.8429C22.1004 19.5107 21.831 19.2413 21.4988 19.2413Z" fill="#33CCCC"/>
<path d="M21.4988 22.1605H19.4493C19.1171 22.1605 18.8477 22.4298 18.8477 22.762C18.8477 23.0943 19.1171 23.3636 19.4493 23.3636H21.4988C21.831 23.3636 22.1004 23.0943 22.1004 22.762C22.1004 22.4298 21.831 22.1605 21.4988 22.1605Z" fill="#33CCCC"/>
<path d="M26.0907 13.1922C25.4632 13.1922 24.9054 13.4979 24.5572 13.9689C24.0962 13.5412 23.4792 13.2794 22.8022 13.2794H17.1699C15.7459 13.2794 14.5875 14.4376 14.5875 15.8612V23.9118C14.5875 25.3355 15.7459 26.4937 17.1699 26.4937H22.8022C23.6169 26.4937 24.3447 26.1145 24.8183 25.5234L25.6792 26.3309C25.7949 26.4394 25.9428 26.4937 26.0907 26.4937C26.2386 26.4937 26.3865 26.4394 26.5022 26.3309L27.3937 25.4947C27.779 25.1333 28 24.6223 28 24.0927V15.1102C28 14.0526 27.1435 13.1922 26.0907 13.1922ZM22.8022 25.2906H17.1699C16.4094 25.2906 15.7906 24.672 15.7906 23.9118V15.8612C15.7906 15.101 16.4094 14.4824 17.1699 14.4824H22.8022C23.5627 14.4824 24.1814 15.101 24.1814 15.8612V23.9118C24.1814 24.672 23.5627 25.2906 22.8022 25.2906ZM26.7969 24.0927C26.7969 24.2911 26.7144 24.4823 26.5706 24.6171L26.0907 25.0673L25.6108 24.6171C25.467 24.4823 25.3846 24.2911 25.3846 24.0927V15.1102C25.3846 14.716 25.7014 14.3953 26.0907 14.3953C26.4801 14.3953 26.7969 14.716 26.7969 15.1102V24.0927Z" fill="#33CCCC"/>
</svg>
