<svg width="28" height="28" viewBox="0 0 28 28" fill="none" xmlns="http://www.w3.org/2000/svg">
<path d="M18.8932 13.8655H9.06834C8.28663 13.8655 7.65067 14.5015 7.65067 15.2832V16.8269C7.65067 17.6086 8.28663 18.2445 9.06834 18.2445H18.8932C19.6749 18.2445 20.3109 17.6086 20.3109 16.8269V15.2832C20.3109 14.5015 19.6749 13.8655 18.8932 13.8655ZM19.1078 16.8268C19.1078 16.9451 19.0116 17.0413 18.8933 17.0413H9.06834C8.95005 17.0413 8.8538 16.9451 8.8538 16.8268V15.2831C8.8538 15.1648 8.95005 15.0685 9.06834 15.0685H18.8932C19.0115 15.0685 19.1078 15.1648 19.1078 15.2831V16.8268H19.1078Z" fill="black"/>
<path d="M19.7457 5.61214H19.2694V4.65177H21.2954C22.0926 4.65177 22.7412 4.00323 22.7412 3.206V2.33078C22.7412 1.04557 21.6956 0 20.4104 0H20.3562H10.9605C9.69784 0 8.67054 1.02725 8.67054 2.28988V5.61214H8.25431C6.42255 5.61214 4.93232 7.10238 4.93232 8.93408V24.678C4.93232 26.5098 6.42255 28 8.25431 28H19.7457C21.5774 28 23.0677 26.5098 23.0677 24.678V8.93408C23.0677 7.10238 21.5774 5.61214 19.7457 5.61214ZM21.5381 2.33078V3.206C21.5381 3.33977 21.4292 3.44865 21.2954 3.44865H19.2694V2.28993C19.2694 1.69066 19.7569 1.20312 20.3562 1.20312H20.4104C21.0322 1.20312 21.5381 1.70898 21.5381 2.33078ZM9.87366 2.28988C9.87366 1.69066 10.3612 1.20312 10.9605 1.20312H18.3411C18.1659 1.52671 18.0662 1.89689 18.0662 2.28993V11.1223H9.87366V2.28988ZM21.8646 24.678C21.8646 25.8464 20.914 26.7969 19.7457 26.7969H8.25431C7.08597 26.7969 6.13544 25.8464 6.13544 24.678V8.93408C6.13544 7.76579 7.08597 6.81527 8.25431 6.81527H8.67054V11.1223H8.25223C7.92001 11.1223 7.65067 11.3916 7.65067 11.7239C7.65067 12.0561 7.92001 12.3254 8.25223 12.3254H19.7094C20.0416 12.3254 20.3109 12.0561 20.3109 11.7239C20.3109 11.3916 20.0416 11.1223 19.7094 11.1223H19.2694V6.81527H19.7457C20.9141 6.81527 21.8646 7.76579 21.8646 8.93408V24.678H21.8646Z" fill="black"/>
<path d="M10.5409 19.7845H8.67016C8.33793 19.7845 8.0686 20.0539 8.0686 20.3861C8.0686 20.7183 8.33793 20.9877 8.67016 20.9877H10.5409C10.8731 20.9877 11.1424 20.7183 11.1424 20.3861C11.1424 20.0539 10.8731 19.7845 10.5409 19.7845Z" fill="black"/>
<path d="M14.9353 19.7845H13.0646C12.7324 19.7845 12.4631 20.0539 12.4631 20.3861C12.4631 20.7183 12.7324 20.9877 13.0646 20.9877H14.9353C15.2675 20.9877 15.5369 20.7183 15.5369 20.3861C15.5369 20.0539 15.2675 19.7845 14.9353 19.7845Z" fill="black"/>
<path d="M19.3298 19.7845H17.4591C17.1269 19.7845 16.8576 20.0539 16.8576 20.3861C16.8576 20.7183 17.1269 20.9877 17.4591 20.9877H19.3298C19.6621 20.9877 19.9314 20.7183 19.9314 20.3861C19.9314 20.0539 19.6621 19.7845 19.3298 19.7845Z" fill="black"/>
<path d="M10.5409 22.847H8.67016C8.33793 22.847 8.0686 23.1163 8.0686 23.4485C8.0686 23.7808 8.33793 24.0501 8.67016 24.0501H10.5409C10.8731 24.0501 11.1424 23.7808 11.1424 23.4485C11.1424 23.1163 10.8731 22.847 10.5409 22.847Z" fill="black"/>
<path d="M14.9353 22.847H13.0646C12.7324 22.847 12.4631 23.1163 12.4631 23.4485C12.4631 23.7808 12.7324 24.0501 13.0646 24.0501H14.9353C15.2675 24.0501 15.5369 23.7808 15.5369 23.4485C15.5369 23.1163 15.2675 22.847 14.9353 22.847Z" fill="black"/>
<path d="M19.3298 22.847H17.4591C17.1269 22.847 16.8576 23.1163 16.8576 23.4485C16.8576 23.7808 17.1269 24.0501 17.4591 24.0501H19.3298C19.6621 24.0501 19.9314 23.7808 19.9314 23.4485C19.9314 23.1163 19.6621 22.847 19.3298 22.847Z" fill="black"/>
<path d="M14.6409 5.57C14.2377 5.42748 13.7931 5.25631 13.5525 5.06758C13.5257 5.04658 13.4963 4.96182 13.5181 4.84643C13.5286 4.79048 13.5772 4.60373 13.7598 4.54871C14.0869 4.45005 14.3192 4.55423 14.4343 4.6308L14.4968 4.67914C14.7597 4.88225 15.1375 4.83396 15.3407 4.57108C15.5439 4.30819 15.4955 3.93041 15.2327 3.72719L15.156 3.66791C15.1478 3.66162 15.1395 3.6555 15.131 3.64965C15.0213 3.57352 14.8227 3.45611 14.5543 3.37993V3.3067C14.5543 2.97448 14.2849 2.70514 13.9527 2.70514C13.6205 2.70514 13.3511 2.97448 13.3511 3.3067V3.41772C12.8294 3.59983 12.4428 4.0557 12.3358 4.62363C12.2326 5.17105 12.4143 5.70393 12.81 6.01428C13.1865 6.30954 13.7198 6.52047 14.24 6.70433C14.5701 6.82103 14.6035 7.05854 14.5735 7.23715C14.5308 7.49117 14.3171 7.76565 13.9487 7.76811C13.528 7.7709 13.4189 7.75373 13.1078 7.55018C12.8297 7.36823 12.4569 7.44622 12.275 7.72425C12.0932 8.00228 12.1711 8.37508 12.4491 8.55703C12.7884 8.77901 13.0555 8.88609 13.3511 8.93476V9.01887C13.3511 9.35109 13.6205 9.62043 13.9527 9.62043C14.2849 9.62043 14.5543 9.35109 14.5543 9.01887V8.87072C15.2288 8.63742 15.6597 8.03323 15.76 7.43676C15.8996 6.60605 15.4499 5.8559 14.6409 5.57Z" fill="#33CCCC"/>
</svg>
