<svg width="28" height="28" viewBox="0 0 28 28" fill="none" xmlns="http://www.w3.org/2000/svg">
<path d="M25.4953 19.0724C25.0891 18.6662 24.5491 18.4425 23.9746 18.4425C23.4002 18.4425 22.8601 18.6662 22.454 19.0723L20.3673 21.159C19.998 20.505 19.2963 20.0625 18.4932 20.0625H16.9077C16.302 20.0625 15.6956 19.919 15.1541 19.6475C14.4461 19.2926 13.6533 19.1049 12.8613 19.1049H12.1521C11.3737 19.1049 10.6191 19.2669 9.90905 19.5862L9.42594 19.8036C8.87228 20.0527 8.28374 20.179 7.67665 20.179H6.69397C6.52455 19.7558 6.11106 19.4556 5.62806 19.4556H3.02438C2.39116 19.4556 1.87595 19.9709 1.87595 20.6041V26.8516C1.87595 27.4848 2.39116 28 3.02438 28H5.62806C6.00272 28 6.335 27.8188 6.54478 27.5404H19.0252C19.8348 27.5404 20.6201 27.2051 21.18 26.6204L25.5001 22.1087C26.3337 21.2698 26.332 19.9092 25.4953 19.0724ZM5.57337 26.7969H3.07907V20.6589H5.57337V26.7969ZM24.6445 21.2628C24.6414 21.2659 24.6384 21.269 24.6354 21.2721L20.311 25.7883C19.977 26.1372 19.5083 26.3373 19.0252 26.3373H6.77649V21.3822H7.67665C8.45502 21.3822 9.20965 21.2202 9.9196 20.9009L10.4027 20.6835C10.9564 20.4344 11.545 20.3081 12.1521 20.3081H12.8613C13.467 20.3081 14.0734 20.4516 14.6149 20.7231C15.3228 21.0781 16.1156 21.2657 16.9077 21.2657H18.4932C19.0156 21.2657 19.4406 21.6907 19.4406 22.213C19.4406 22.2355 19.4329 22.3282 19.4329 22.3282C19.3758 22.7963 18.9766 23.1604 18.4932 23.1604H13.0074C12.6751 23.1604 12.4058 23.4297 12.4058 23.762C12.4058 24.0942 12.6751 24.3635 13.0074 24.3635H18.4932C19.5385 24.3635 20.4116 23.6138 20.6039 22.6239L23.3047 19.9231C23.4836 19.7441 23.7215 19.6456 23.9746 19.6456C24.2276 19.6456 24.4655 19.7441 24.6444 19.9231C25.0138 20.2925 25.0138 20.8935 24.6445 21.2628Z" fill="black"/>
<path d="M13.9005 17.9137C18.8394 17.9137 22.8574 13.8957 22.8574 8.95683C22.8574 4.018 18.8394 0 13.9005 0C8.9617 0 4.9437 4.018 4.9437 8.95683C4.9437 13.8957 8.9617 17.9137 13.9005 17.9137ZM13.9005 1.20312C18.1759 1.20312 21.6542 4.68141 21.6542 8.95683C21.6542 13.2322 18.1759 16.7105 13.9005 16.7105C9.62511 16.7105 6.14682 13.2322 6.14682 8.95683C6.14682 4.68141 9.62511 1.20312 13.9005 1.20312Z" fill="black"/>
<path d="M14.6666 8.367C14.3375 8.25068 13.934 8.09673 13.727 7.93606C13.7168 7.91895 13.7005 7.85004 13.7308 7.76013C13.7474 7.71119 13.7893 7.62489 13.8842 7.59629C14.1444 7.51792 14.3282 7.59831 14.42 7.6588L14.4733 7.69992C14.736 7.90314 15.1139 7.85485 15.3171 7.59202C15.5204 7.3292 15.4721 6.95136 15.2092 6.74814C15.2092 6.74814 15.1249 6.68328 15.1164 6.67737C15.0225 6.61219 14.8577 6.51408 14.6363 6.4443V6.43134C14.6363 6.09911 14.367 5.82977 14.0348 5.82977C13.7025 5.82977 13.4332 6.09911 13.4332 6.43134V6.48044C12.9719 6.65993 12.6327 7.07304 12.5366 7.58289C12.4405 8.09263 12.611 8.58974 12.9814 8.8803C13.3222 9.14761 13.8001 9.33672 14.2656 9.50133C14.4633 9.57122 14.5472 9.70378 14.5151 9.8953C14.4896 10.0471 14.3589 10.3045 14.0308 10.3067C13.6657 10.3092 13.5882 10.297 13.3257 10.1254C13.0478 9.94348 12.675 10.0215 12.493 10.2994C12.3111 10.5775 12.3891 10.9503 12.6671 11.1322C12.9551 11.3206 13.1858 11.418 13.4332 11.4664V11.4822C13.4332 11.8144 13.7025 12.0838 14.0348 12.0838C14.367 12.0838 14.6363 11.8144 14.6363 11.4822V11.3976C15.184 11.1879 15.5994 10.7025 15.7016 10.0947C15.8308 9.32584 15.4149 8.63152 14.6666 8.367Z" fill="#33CCCC"/>
<path d="M13.9005 2.71014C10.4561 2.71014 7.65384 5.51239 7.65384 8.95682C7.65384 12.4013 10.4561 15.2035 13.9005 15.2035C17.345 15.2035 20.1473 12.4013 20.1473 8.95682C20.1473 5.51239 17.345 2.71014 13.9005 2.71014ZM13.9005 14.0004C11.1195 14.0004 8.85696 11.7378 8.85696 8.95682C8.85696 6.1758 11.1195 3.91327 13.9005 3.91327C16.6816 3.91327 18.9441 6.1758 18.9441 8.95682C18.9441 11.7378 16.6815 14.0004 13.9005 14.0004Z" fill="#33CCCC"/>
</svg>
