<svg width="28" height="28" viewBox="0 0 28 28" fill="none" xmlns="http://www.w3.org/2000/svg">
<g clip-path="url(#clip0_3_615)">
<path d="M26.5123 6.36727L14.2292 0.988843C14.0755 0.921525 13.9005 0.921525 13.7466 0.988843L1.46411 6.36727C1.23498 6.46762 1.09181 6.69932 1.10466 6.94918C1.10668 6.98844 1.11292 7.02672 1.12216 7.06391V12.0805C0.468497 12.3218 0.000549316 12.9566 0.000549316 13.6998C0.000549316 14.65 0.765333 15.4229 1.70533 15.4229C2.64533 15.4229 3.41011 14.65 3.41011 13.6998C3.41011 12.9707 2.95955 12.3463 2.32525 12.0951V7.74853L6.84702 9.19694C6.84702 9.19694 6.84702 14.0783 6.84702 14.0831C6.84702 14.2709 6.94091 14.4563 7.09196 14.5675C7.194 14.6426 9.64098 16.4071 13.9885 16.4071C18.3359 16.4071 20.7825 14.6426 20.8845 14.5674C21.0355 14.4563 21.1294 14.2707 21.1294 14.083V9.19683L26.4545 7.49112C26.6927 7.41483 26.8589 7.19899 26.8717 6.94913C26.8846 6.69937 26.7415 6.46762 26.5123 6.36727ZM1.70539 14.2198C1.42873 14.2198 1.2037 13.9866 1.2037 13.6998C1.2037 13.413 1.42878 13.1797 1.70539 13.1797C1.98199 13.1797 2.20707 13.413 2.20707 13.6998C2.20707 13.9866 1.98204 14.2198 1.70539 14.2198ZM19.9263 13.0429C18.8266 12.5008 16.8068 11.759 13.988 11.759C11.1695 11.759 9.14979 12.5007 8.05011 13.0428V8.58413C8.73161 8.17994 10.8036 7.13375 13.988 7.13375C17.1724 7.13375 19.2447 8.17994 19.9263 8.58418V13.0429ZM8.67162 14.0831C9.66406 13.6102 11.4812 12.9621 13.988 12.9621C16.4952 12.9621 18.3128 13.6104 19.3049 14.083C18.3124 14.5559 16.4952 15.204 13.9885 15.204C11.4813 15.2041 9.66368 14.5558 8.67162 14.0831ZM21.0503 7.95896C21.0091 7.88633 20.9536 7.8217 20.8846 7.77084C20.7825 7.6957 18.3355 5.93065 13.988 5.93065C9.64044 5.93065 7.19389 7.69575 7.09185 7.77089C7.02283 7.82175 6.96733 7.88639 6.92615 7.95896L3.40459 6.83095L13.9879 2.19658L24.5717 6.83095L21.0503 7.95896Z" fill="black"/>
<path d="M27.598 20.7571C27.5754 20.5044 27.3892 20.2965 27.1437 20.2322L18.0193 17.8452C17.3155 17.6596 16.5794 17.6862 15.8906 17.9219C15.095 18.1937 14.4389 18.7194 13.9998 19.3899C13.5609 18.7194 12.905 18.1938 12.1098 17.9221C11.421 17.6862 10.6848 17.6596 9.98174 17.845L0.847806 20.2368C0.602321 20.3011 0.416224 20.509 0.393639 20.7618C0.371163 21.0133 0.500933 21.2485 0.729192 21.3559C0.81237 21.4017 1.82647 21.9968 1.82647 23.7578C1.82647 24.09 2.0958 24.3593 2.42801 24.3593C2.76023 24.3593 3.02956 24.09 3.02956 23.7578C3.02956 22.5134 2.63423 21.6676 2.2178 21.1218L10.2875 19.0086C10.7612 18.8837 11.2566 18.9016 11.7204 19.0604C12.7239 19.4032 13.3981 20.3461 13.3981 21.4067V24.2356C13.3981 24.5679 13.6675 24.8372 13.9997 24.8372C14.3319 24.8372 14.6012 24.5679 14.6012 24.2356V21.4067C14.6012 20.3463 15.2757 19.4034 16.2798 19.0603C16.7436 18.9016 17.2391 18.8837 17.7136 19.0089L25.7736 21.1174C25.3574 21.6633 24.962 22.5091 24.962 23.7532C24.962 24.0855 25.2314 24.3548 25.5636 24.3548C25.8958 24.3548 26.1651 24.0855 26.1651 23.7532C26.1651 21.9922 27.1792 21.3972 27.2624 21.3514C27.4907 21.2439 27.6205 21.0087 27.598 20.7571Z" fill="#33CCCC"/>
<path d="M14.9908 27.0617H13.0093C12.1366 27.0617 11.3064 26.7851 10.6084 26.2617C10.0909 25.8737 9.67145 25.3596 9.39244 24.7796L1.9774 26.788C1.97423 26.7888 1.97111 26.7897 1.96794 26.7905C1.17056 26.9926 0.357599 26.5083 0.155479 25.7111L0.0463261 25.2805C-0.0516166 24.8943 0.0067881 24.493 0.210658 24.1507C0.413707 23.8098 0.736846 23.5679 1.12096 23.4692L9.91108 21.1032C9.91392 21.1025 9.91682 21.1017 9.91972 21.101C10.5158 20.9501 11.139 21.0802 11.6295 21.4582C12.1309 21.8447 12.422 22.4282 12.428 23.0593C12.4309 23.3655 12.7152 23.6342 13.0363 23.6342H14.9637C15.1206 23.6342 15.2775 23.5694 15.3942 23.4564C15.509 23.3453 15.5721 23.2024 15.5721 23.054C15.5717 22.4349 15.8566 21.8578 16.3536 21.4708C16.8506 21.0838 17.4801 20.949 18.0803 21.101C18.0832 21.1018 18.0861 21.1025 18.089 21.1033L26.8791 23.4692C27.2632 23.5679 27.5864 23.8098 27.7894 24.1507C27.9933 24.493 28.0516 24.8942 27.9537 25.2805L27.8446 25.7111C27.6425 26.5084 26.8293 26.9924 26.0321 26.7905C26.029 26.7897 26.0258 26.7888 26.0227 26.788L18.6076 24.7796C18.3286 25.3596 17.9092 25.8737 17.3917 26.2617C16.6936 26.7851 15.8634 27.0617 14.9908 27.0617ZM9.75375 23.4569C10.0112 23.4569 10.2484 23.6233 10.3281 23.8807C10.6885 25.0452 11.791 25.8586 13.0093 25.8586H14.9908C16.209 25.8586 17.3116 25.0452 17.672 23.8807C17.7677 23.5712 18.0913 23.3933 18.4039 23.4779L26.3311 25.6251C26.4841 25.6619 26.6395 25.5685 26.6784 25.4154L26.7875 24.9848C26.813 24.884 26.7785 24.8047 26.7557 24.7663C26.7329 24.7279 26.6795 24.6597 26.5787 24.6343C26.5758 24.6335 26.5729 24.6328 26.5701 24.632L17.7811 22.2664C17.5444 22.2078 17.2937 22.2636 17.0928 22.42C16.8908 22.5774 16.775 22.8082 16.7752 23.0534C16.7754 23.5307 16.5822 23.9808 16.2311 24.3207C15.8871 24.6538 15.437 24.8373 14.9637 24.8373H13.0363C12.0468 24.8373 11.2342 24.0448 11.225 23.0707C11.2225 22.8112 11.1023 22.5708 10.8952 22.4112C10.7803 22.3227 10.54 22.1865 10.2189 22.2664L1.42994 24.632C1.42709 24.6328 1.42425 24.6335 1.42141 24.6343C1.32056 24.6598 1.26719 24.7279 1.24439 24.7663C1.22158 24.8047 1.18702 24.884 1.21256 24.9848L1.32171 25.4154C1.36054 25.5686 1.51585 25.6621 1.66897 25.6251L9.5962 23.4779C9.64875 23.4636 9.70169 23.4569 9.75375 23.4569Z" fill="black"/>
</g>
<defs>
<clipPath id="clip0_3_615">
<rect width="28" height="28" fill="white"/>
</clipPath>
</defs>
</svg>
